<?xml version="1.0" encoding="UTF-8" standalone="no"?>
<svg
   width="400"
   height="81"
   viewBox="0 0 400 81"
   fill="none"
   version="1.1"
   id="svg19"
   sodipodi:docname="logofinalbranco.svg"
   inkscape:version="1.4.2 (f4327f4, 2025-05-13)"
   xmlns:inkscape="http://www.inkscape.org/namespaces/inkscape"
   xmlns:sodipodi="http://sodipodi.sourceforge.net/DTD/sodipodi-0.dtd"
   xmlns="http://www.w3.org/2000/svg"
   xmlns:svg="http://www.w3.org/2000/svg">
  <sodipodi:namedview
     id="namedview1"
     pagecolor="#505050"
     bordercolor="#eeeeee"
     borderopacity="1"
     inkscape:showpageshadow="0"
     inkscape:pageopacity="0"
     inkscape:pagecheckerboard="0"
     inkscape:deskcolor="#505050"
     inkscape:zoom="1.5644738"
     inkscape:cx="270.05886"
     inkscape:cy="34.196802"
     inkscape:window-width="1920"
     inkscape:window-height="1009"
     inkscape:window-x="-8"
     inkscape:window-y="-8"
     inkscape:window-maximized="1"
     inkscape:current-layer="svg19" />
  <defs
     id="defs19" />
  <path
     d="M 31.6049,0.11157602 C 18.2058,0.33180902 18.107,0.33180902 13.4979,2.69145 5.56379,6.71857 0.888889,13.7031 0.427984,22.1349 c -0.263375,4.4046 0.427983,7.6767 2.403296,11.6094 1.25102,2.454 1.9753,3.3979 4.34567,5.6946 3.16045,3.0203 5.79425,4.5934 9.87655,5.9463 l 2.535,0.818 70.7819,0.3146 1.7448,0.7551 c 2.2716,0.9753 4.7737,3.5867 5.5309,5.7575 1.7449,5.0339 -0.4609,10.5712 -5.07,12.7421 L 90.6996,66.6534 9.25103,66.8107 6.22222,71.4671 C 4.54321,74.0155 2.46914,77.1931 1.58025,78.546 L 0,81 94.321,80.8112 96.4609,80.0876 c 8.0331,-2.7686 13.4651,-8.4632 15.8351,-16.5804 0.856,-2.9574 1.021,-9.1554 0.33,-12.2386 -1.548,-6.7643 -6.223,-12.5533 -12.511,-15.6051 -5.2343,-2.4855 -2.2385,-2.3282 -41.8434,-2.517 L 22.8807,32.9892 21.0041,32.1083 c -3.2922,-1.5416 -5.1687,-4.3418 -5.4321,-8.0857 -0.2963,-3.8698 2.0082,-7.5823 5.7613,-9.3442 l 1.8766,-0.8809 79.5061,-0.1573 0.362,-0.6922 c 0.231,-0.3775 2.206,-3.42933 4.445,-6.76429 l 4.016,-6.07213398 -2.502,-0.0314616 c -13.2016,-0.1258474 -68.0164,-0.0943856 -77.4321,0.0314616 z"
     fill="#000000"
     id="path1"
     style="fill:#f2f2f2" />
  <path
     d="m 187.984,0.61496802 c -0.988,0.251695 -2.898,0.94385198 -4.182,1.57309198 -4.246,1.95064 -5.432,3.39788 -15.901,19.19174 -5.136,7.7711 -10.699,16.1085 -12.313,18.531 -1.613,2.4226 -8.131,12.3331 -14.452,22.0233 -6.354,9.6903 -11.753,17.9333 -12.017,18.3108 l -0.461,0.7236 h 18.667 l 5.926,-9.1868 c 3.259,-5.0339 6.979,-10.7914 8.263,-12.805 1.284,-2.0136 4.149,-6.4811 6.387,-9.9419 2.239,-3.4608 7.638,-11.9555 12.05,-18.8772 4.378,-6.9216 8.428,-13.1195 9.02,-13.7488 2.601,-2.8945 6.848,-2.6113 8.988,0.5978 0.428,0.6607 4.016,6.3553 7.967,12.6791 8.79,14.032 21.893,34.7024 30.42,47.885 l 2.173,3.3978 h 18.337 l -0.658,-1.0382 c -3.359,-5.2856 -5.433,-8.4632 -13.301,-20.5131 -4.971,-7.6138 -12.576,-19.2861 -16.889,-25.9561 -4.28,-6.6699 -8.362,-12.9622 -9.053,-14.0005 -0.692,-1.0382 -2.766,-4.2788 -4.642,-7.2362 -2.14,-3.3035 -4.115,-5.97776 -5.235,-7.07892 -2.107,-2.01356 -5.597,-3.86981 -8.592,-4.56197298 -2.634,-0.5977756 -8.099,-0.5663138 -10.502,0.031461 z"
     fill="#2563eb"
     id="path2" />
  <path
     d="M 275.226,80.9685 H 290.7 V 52.0236 c 0,-15.9197 0.098,-28.9449 0.23,-28.9449 0.132,0 10.337,9.6588 22.716,21.457 21.564,20.6075 22.552,21.4885 23.803,21.5829 0.724,0.0629 1.514,0 1.777,-0.1574 0.264,-0.1258 10.469,-9.7846 22.716,-21.4255 12.28,-11.6094 22.354,-21.1424 22.42,-21.1424 0.099,0 0.165,12.9623 0.165,28.7876 V 80.9685 H 400 l -0.165,-80.38499298 -5.201,-0.094386 c -2.864,-0.031462 -5.762,0.062924 -6.42,0.220233 -0.988,0.283157 -3.852,2.83156598 -14.881,13.24544598 -7.506,7.1104 -18.601,17.5557 -24.625,23.1874 L 337.745,47.3987 321.613,32.0139 C 312.757,23.5507 301.959,13.2626 297.679,9.10967 292.708,4.32747 289.383,1.40151 288.56,1.02397 287.44,0.52058302 286.387,0.42619702 281.251,0.42619702 h -6.025 z"
     fill="#000000"
     id="path3"
     style="fill:#ececec" />
</svg>
